<?xml version="1.0" encoding="UTF-8" standalone="no"?>
<!DOCTYPE svg PUBLIC "-//W3C//DTD SVG 1.1//EN"
 "http://www.w3.org/Graphics/SVG/1.1/DTD/svg11.dtd">
<!-- Generated by graphviz version 12.2.0 (20241103.1931)
 -->
<!-- Title: G Pages: 1 -->
<svg width="1146pt" height="575pt"
 viewBox="0.00 0.00 1146.00 575.00" xmlns="http://www.w3.org/2000/svg" xmlns:xlink="http://www.w3.org/1999/xlink">
<g id="graph0" class="graph" transform="scale(1 1) rotate(0) translate(4 571)">
<title>G</title>
<polygon fill="white" stroke="none" points="-4,4 -4,-571 1142,-571 1142,4 -4,4"/>
<!-- 1 -->
<g id="node1" class="node">
<title>1</title>
<ellipse fill="none" stroke="black" cx="895" cy="-460.5" rx="27" ry="18"/>
<text text-anchor="middle" x="895" y="-455.45" font-family="Times,serif" font-size="14.00">1</text>
</g>
<!-- 19 -->
<g id="node2" class="node">
<title>19</title>
<ellipse fill="none" stroke="black" cx="533" cy="-372" rx="27" ry="18"/>
<text text-anchor="middle" x="533" y="-366.95" font-family="Times,serif" font-size="14.00">19</text>
</g>
<!-- 1&#45;&#45;19 -->
<g id="edge1" class="edge">
<title>1&#45;&#45;19</title>
<path fill="none" stroke="black" d="M874.33,-448.51C869.13,-446.16 863.46,-443.96 858,-442.5 772.41,-419.68 745.81,-444.46 659.5,-424.5 620.69,-415.52 578.34,-396.15 553.81,-383.89"/>
<text text-anchor="middle" x="666.25" y="-411.2" font-family="Times,serif" font-size="14.00">98</text>
</g>
<!-- 26 -->
<g id="node3" class="node">
<title>26</title>
<ellipse fill="none" stroke="black" cx="893" cy="-372" rx="27" ry="18"/>
<text text-anchor="middle" x="893" y="-366.95" font-family="Times,serif" font-size="14.00">26</text>
</g>
<!-- 1&#45;&#45;26 -->
<g id="edge2" class="edge">
<title>1&#45;&#45;26</title>
<path fill="none" stroke="black" d="M894.6,-442.41C894.26,-427.34 893.75,-405.49 893.4,-390.35"/>
<text text-anchor="middle" x="900.93" y="-411.2" font-family="Times,serif" font-size="14.00">37</text>
</g>
<!-- 38 -->
<g id="node4" class="node">
<title>38</title>
<ellipse fill="none" stroke="black" cx="575" cy="-106.5" rx="27" ry="18"/>
<text text-anchor="middle" x="575" y="-101.45" font-family="Times,serif" font-size="14.00">38</text>
</g>
<!-- 1&#45;&#45;38 -->
<g id="edge3" class="edge">
<title>1&#45;&#45;38</title>
<path fill="none" stroke="black" d="M916.4,-449.24C956.73,-429.56 1040,-387.22 1040,-373 1040,-373 1040,-373 1040,-194 1040,-149.15 701.25,-117.84 602.01,-109.64"/>
<text text-anchor="middle" x="1046.75" y="-278.45" font-family="Times,serif" font-size="14.00">37</text>
</g>
<!-- 41 -->
<g id="node5" class="node">
<title>41</title>
<ellipse fill="none" stroke="black" cx="719" cy="-283.5" rx="27" ry="18"/>
<text text-anchor="middle" x="719" y="-278.45" font-family="Times,serif" font-size="14.00">41</text>
</g>
<!-- 1&#45;&#45;41 -->
<g id="edge4" class="edge">
<title>1&#45;&#45;41</title>
<path fill="none" stroke="black" d="M907.67,-444.48C924.45,-422.67 949.65,-381.81 929,-354 880.83,-289.16 830.39,-330.49 755,-301.5 750.1,-299.61 744.93,-297.35 740.09,-295.1"/>
<text text-anchor="middle" x="943.52" y="-366.95" font-family="Times,serif" font-size="14.00">54</text>
</g>
<!-- 48 -->
<g id="node6" class="node">
<title>48</title>
<ellipse fill="none" stroke="black" cx="975" cy="-195" rx="27" ry="18"/>
<text text-anchor="middle" x="975" y="-189.95" font-family="Times,serif" font-size="14.00">48</text>
</g>
<!-- 1&#45;&#45;48 -->
<g id="edge5" class="edge">
<title>1&#45;&#45;48</title>
<path fill="none" stroke="black" d="M914.44,-447.76C923.18,-441.7 933.07,-433.66 940,-424.5 949.98,-411.3 949.96,-406.05 954,-390 970.05,-326.27 973.83,-247.72 974.73,-213.41"/>
<text text-anchor="middle" x="973.37" y="-322.7" font-family="Times,serif" font-size="14.00">93</text>
</g>
<!-- 24 -->
<g id="node10" class="node">
<title>24</title>
<ellipse fill="none" stroke="black" cx="436" cy="-283.5" rx="27" ry="18"/>
<text text-anchor="middle" x="436" y="-278.45" font-family="Times,serif" font-size="14.00">24</text>
</g>
<!-- 19&#45;&#45;24 -->
<g id="edge36" class="edge">
<title>19&#45;&#45;24</title>
<path fill="none" stroke="black" d="M520.99,-355.69C512.18,-344.95 499.6,-330.59 487,-319.5 477.16,-310.85 465.12,-302.49 455.21,-296.12"/>
<text text-anchor="middle" x="510.01" y="-322.7" font-family="Times,serif" font-size="14.00">66</text>
</g>
<!-- 43 -->
<g id="node11" class="node">
<title>43</title>
<ellipse fill="none" stroke="black" cx="312" cy="-195" rx="27" ry="18"/>
<text text-anchor="middle" x="312" y="-189.95" font-family="Times,serif" font-size="14.00">43</text>
</g>
<!-- 41&#45;&#45;43 -->
<g id="edge57" class="edge">
<title>41&#45;&#45;43</title>
<path fill="none" stroke="black" d="M698.52,-271.37C693.57,-269.09 688.19,-266.94 683,-265.5 606.6,-244.26 582.45,-266.65 505.5,-247.5 486.64,-242.8 483.73,-236.18 465,-231 414.29,-216.98 398.31,-228.39 348,-213 342.84,-211.42 337.49,-209.23 332.53,-206.94"/>
<text text-anchor="middle" x="512.25" y="-234.2" font-family="Times,serif" font-size="14.00">13</text>
</g>
<!-- 42 -->
<g id="node41" class="node">
<title>42</title>
<ellipse fill="none" stroke="black" cx="719" cy="-195" rx="27" ry="18"/>
<text text-anchor="middle" x="719" y="-189.95" font-family="Times,serif" font-size="14.00">42</text>
</g>
<!-- 41&#45;&#45;42 -->
<g id="edge56" class="edge">
<title>41&#45;&#45;42</title>
<path fill="none" stroke="black" d="M719,-265.41C719,-250.34 719,-228.49 719,-213.35"/>
<text text-anchor="middle" x="725.75" y="-234.2" font-family="Times,serif" font-size="14.00">93</text>
</g>
<!-- 2 -->
<g id="node7" class="node">
<title>2</title>
<ellipse fill="none" stroke="black" cx="428" cy="-549" rx="27" ry="18"/>
<text text-anchor="middle" x="428" y="-543.95" font-family="Times,serif" font-size="14.00">2</text>
</g>
<!-- 8 -->
<g id="node8" class="node">
<title>8</title>
<ellipse fill="none" stroke="black" cx="677" cy="-460.5" rx="27" ry="18"/>
<text text-anchor="middle" x="677" y="-455.45" font-family="Times,serif" font-size="14.00">8</text>
</g>
<!-- 2&#45;&#45;8 -->
<g id="edge6" class="edge">
<title>2&#45;&#45;8</title>
<path fill="none" stroke="black" d="M451.43,-539.86C498.88,-523.38 605.9,-486.2 653.46,-469.68"/>
<text text-anchor="middle" x="581.55" y="-499.7" font-family="Times,serif" font-size="14.00">58</text>
</g>
<!-- 14 -->
<g id="node9" class="node">
<title>14</title>
<ellipse fill="none" stroke="black" cx="483" cy="-460.5" rx="27" ry="18"/>
<text text-anchor="middle" x="483" y="-455.45" font-family="Times,serif" font-size="14.00">14</text>
</g>
<!-- 2&#45;&#45;14 -->
<g id="edge7" class="edge">
<title>2&#45;&#45;14</title>
<path fill="none" stroke="black" d="M438.09,-532.13C447.95,-516.62 462.89,-493.13 472.79,-477.56"/>
<text text-anchor="middle" x="467.18" y="-499.7" font-family="Times,serif" font-size="14.00">31</text>
</g>
<!-- 2&#45;&#45;24 -->
<g id="edge8" class="edge">
<title>2&#45;&#45;24</title>
<path fill="none" stroke="black" d="M428.52,-530.71C429.97,-482.97 434.02,-349.67 435.47,-301.85"/>
<text text-anchor="middle" x="438.93" y="-411.2" font-family="Times,serif" font-size="14.00">15</text>
</g>
<!-- 2&#45;&#45;43 -->
<g id="edge9" class="edge">
<title>2&#45;&#45;43</title>
<path fill="none" stroke="black" d="M400.58,-548.32C306.11,-548.69 0,-543.56 0,-461.5 0,-461.5 0,-461.5 0,-282.5 0,-271.17 8.88,-270.59 19,-265.5 123.17,-213.15 165.39,-249.82 276,-213 280.98,-211.34 286.18,-209.17 291.03,-206.93"/>
<text text-anchor="middle" x="6.75" y="-366.95" font-family="Times,serif" font-size="14.00">30</text>
</g>
<!-- 44 -->
<g id="node12" class="node">
<title>44</title>
<ellipse fill="none" stroke="black" cx="127" cy="-283.5" rx="27" ry="18"/>
<text text-anchor="middle" x="127" y="-278.45" font-family="Times,serif" font-size="14.00">44</text>
</g>
<!-- 2&#45;&#45;44 -->
<g id="edge10" class="edge">
<title>2&#45;&#45;44</title>
<path fill="none" stroke="black" d="M405.53,-538.53C350.26,-514 207.19,-442.77 138,-336 131.44,-325.87 128.72,-312.5 127.62,-301.91"/>
<text text-anchor="middle" x="225.25" y="-411.2" font-family="Times,serif" font-size="14.00">47</text>
</g>
<!-- 20 -->
<g id="node25" class="node">
<title>20</title>
<ellipse fill="none" stroke="black" cx="677" cy="-372" rx="27" ry="18"/>
<text text-anchor="middle" x="677" y="-366.95" font-family="Times,serif" font-size="14.00">20</text>
</g>
<!-- 8&#45;&#45;20 -->
<g id="edge25" class="edge">
<title>8&#45;&#45;20</title>
<path fill="none" stroke="black" d="M677,-442.41C677,-427.34 677,-405.49 677,-390.35"/>
<text text-anchor="middle" x="683.75" y="-411.2" font-family="Times,serif" font-size="14.00">95</text>
</g>
<!-- 14&#45;&#45;19 -->
<g id="edge30" class="edge">
<title>14&#45;&#45;19</title>
<path fill="none" stroke="black" d="M492.4,-443.23C501.34,-427.77 514.71,-404.64 523.64,-389.2"/>
<text text-anchor="middle" x="515.85" y="-411.2" font-family="Times,serif" font-size="14.00">8</text>
</g>
<!-- 34 -->
<g id="node21" class="node">
<title>34</title>
<ellipse fill="none" stroke="black" cx="508" cy="-283.5" rx="27" ry="18"/>
<text text-anchor="middle" x="508" y="-278.45" font-family="Times,serif" font-size="14.00">34</text>
</g>
<!-- 14&#45;&#45;34 -->
<g id="edge31" class="edge">
<title>14&#45;&#45;34</title>
<path fill="none" stroke="black" d="M481.33,-442.17C479.7,-421.14 478.18,-384.68 483.5,-354 486.74,-335.34 494.42,-315.03 500.33,-301.21"/>
<text text-anchor="middle" x="490.25" y="-366.95" font-family="Times,serif" font-size="14.00">79</text>
</g>
<!-- 27 -->
<g id="node35" class="node">
<title>27</title>
<ellipse fill="none" stroke="black" cx="456" cy="-195" rx="27" ry="18"/>
<text text-anchor="middle" x="456" y="-189.95" font-family="Times,serif" font-size="14.00">27</text>
</g>
<!-- 24&#45;&#45;27 -->
<g id="edge45" class="edge">
<title>24&#45;&#45;27</title>
<path fill="none" stroke="black" d="M439.95,-265.41C443.46,-250.25 448.55,-228.21 452.06,-213.05"/>
<text text-anchor="middle" x="454.54" y="-234.2" font-family="Times,serif" font-size="14.00">78</text>
</g>
<!-- 45 -->
<g id="node37" class="node">
<title>45</title>
<ellipse fill="none" stroke="black" cx="313" cy="-18" rx="27" ry="18"/>
<text text-anchor="middle" x="313" y="-12.95" font-family="Times,serif" font-size="14.00">45</text>
</g>
<!-- 43&#45;&#45;45 -->
<g id="edge58" class="edge">
<title>43&#45;&#45;45</title>
<path fill="none" stroke="black" d="M312.1,-176.58C312.29,-143.04 312.71,-69.84 312.9,-36.35"/>
<text text-anchor="middle" x="319.35" y="-101.45" font-family="Times,serif" font-size="14.00">88</text>
</g>
<!-- 3 -->
<g id="node13" class="node">
<title>3</title>
<ellipse fill="none" stroke="black" cx="929" cy="-549" rx="27" ry="18"/>
<text text-anchor="middle" x="929" y="-543.95" font-family="Times,serif" font-size="14.00">3</text>
</g>
<!-- 3&#45;&#45;8 -->
<g id="edge11" class="edge">
<title>3&#45;&#45;8</title>
<path fill="none" stroke="black" d="M905.29,-539.86C857.26,-523.38 748.96,-486.2 700.83,-469.68"/>
<text text-anchor="middle" x="832.32" y="-499.7" font-family="Times,serif" font-size="14.00">45</text>
</g>
<!-- 10 -->
<g id="node14" class="node">
<title>10</title>
<ellipse fill="none" stroke="black" cx="822" cy="-460.5" rx="27" ry="18"/>
<text text-anchor="middle" x="822" y="-455.45" font-family="Times,serif" font-size="14.00">10</text>
</g>
<!-- 3&#45;&#45;10 -->
<g id="edge12" class="edge">
<title>3&#45;&#45;10</title>
<path fill="none" stroke="black" d="M912.28,-534.48C892.18,-518.23 858.65,-491.13 838.6,-474.92"/>
<text text-anchor="middle" x="888.46" y="-499.7" font-family="Times,serif" font-size="14.00">7</text>
</g>
<!-- 12 -->
<g id="node15" class="node">
<title>12</title>
<ellipse fill="none" stroke="black" cx="967" cy="-460.5" rx="27" ry="18"/>
<text text-anchor="middle" x="967" y="-455.45" font-family="Times,serif" font-size="14.00">12</text>
</g>
<!-- 3&#45;&#45;12 -->
<g id="edge13" class="edge">
<title>3&#45;&#45;12</title>
<path fill="none" stroke="black" d="M936.33,-531.32C943.06,-516 952.97,-493.43 959.7,-478.13"/>
<text text-anchor="middle" x="958.15" y="-499.7" font-family="Times,serif" font-size="14.00">58</text>
</g>
<!-- 29 -->
<g id="node16" class="node">
<title>29</title>
<ellipse fill="none" stroke="black" cx="1039" cy="-460.5" rx="27" ry="18"/>
<text text-anchor="middle" x="1039" y="-455.45" font-family="Times,serif" font-size="14.00">29</text>
</g>
<!-- 3&#45;&#45;29 -->
<g id="edge14" class="edge">
<title>3&#45;&#45;29</title>
<path fill="none" stroke="black" d="M945.71,-534.86C966.38,-518.6 1001.39,-491.08 1022.14,-474.76"/>
<text text-anchor="middle" x="1000.6" y="-499.7" font-family="Times,serif" font-size="14.00">45</text>
</g>
<!-- 10&#45;&#45;19 -->
<g id="edge26" class="edge">
<title>10&#45;&#45;19</title>
<path fill="none" stroke="black" d="M796.02,-455.39C773.94,-451.91 741.4,-446.82 713,-442.5 659.03,-434.29 641.02,-447.48 591.5,-424.5 573.33,-416.07 556.62,-400.17 545.75,-388.26"/>
<text text-anchor="middle" x="598.25" y="-411.2" font-family="Times,serif" font-size="14.00">68</text>
</g>
<!-- 10&#45;&#45;26 -->
<g id="edge27" class="edge">
<title>10&#45;&#45;26</title>
<path fill="none" stroke="black" d="M834.37,-444.43C847.32,-428.65 867.55,-404.01 880.54,-388.18"/>
<text text-anchor="middle" x="870.61" y="-411.2" font-family="Times,serif" font-size="14.00">20</text>
</g>
<!-- 40 -->
<g id="node26" class="node">
<title>40</title>
<ellipse fill="none" stroke="black" cx="821" cy="-372" rx="27" ry="18"/>
<text text-anchor="middle" x="821" y="-366.95" font-family="Times,serif" font-size="14.00">40</text>
</g>
<!-- 10&#45;&#45;40 -->
<g id="edge28" class="edge">
<title>10&#45;&#45;40</title>
<path fill="none" stroke="black" d="M821.8,-442.41C821.63,-427.34 821.38,-405.49 821.2,-390.35"/>
<text text-anchor="middle" x="828.34" y="-411.2" font-family="Times,serif" font-size="14.00">24</text>
</g>
<!-- 4 -->
<g id="node17" class="node">
<title>4</title>
<ellipse fill="none" stroke="black" cx="1088" cy="-549" rx="27" ry="18"/>
<text text-anchor="middle" x="1088" y="-543.95" font-family="Times,serif" font-size="14.00">4</text>
</g>
<!-- 4&#45;&#45;29 -->
<g id="edge16" class="edge">
<title>4&#45;&#45;29</title>
<path fill="none" stroke="black" d="M1078.78,-531.73C1070.02,-516.27 1056.92,-493.14 1048.18,-477.7"/>
<text text-anchor="middle" x="1074.64" y="-499.7" font-family="Times,serif" font-size="14.00">81</text>
</g>
<!-- 5 -->
<g id="node18" class="node">
<title>5</title>
<ellipse fill="none" stroke="black" cx="1111" cy="-460.5" rx="27" ry="18"/>
<text text-anchor="middle" x="1111" y="-455.45" font-family="Times,serif" font-size="14.00">5</text>
</g>
<!-- 4&#45;&#45;5 -->
<g id="edge15" class="edge">
<title>4&#45;&#45;5</title>
<path fill="none" stroke="black" d="M1092.54,-530.91C1096.58,-515.75 1102.44,-493.71 1106.47,-478.55"/>
<text text-anchor="middle" x="1104.94" y="-499.7" font-family="Times,serif" font-size="14.00">5</text>
</g>
<!-- 6 -->
<g id="node19" class="node">
<title>6</title>
<ellipse fill="none" stroke="black" cx="749" cy="-372" rx="27" ry="18"/>
<text text-anchor="middle" x="749" y="-366.95" font-family="Times,serif" font-size="14.00">6</text>
</g>
<!-- 13 -->
<g id="node20" class="node">
<title>13</title>
<ellipse fill="none" stroke="black" cx="791" cy="-283.5" rx="27" ry="18"/>
<text text-anchor="middle" x="791" y="-278.45" font-family="Times,serif" font-size="14.00">13</text>
</g>
<!-- 6&#45;&#45;13 -->
<g id="edge17" class="edge">
<title>6&#45;&#45;13</title>
<path fill="none" stroke="black" d="M757.1,-354.32C764.54,-339 775.5,-316.43 782.93,-301.13"/>
<text text-anchor="middle" x="780.51" y="-322.7" font-family="Times,serif" font-size="14.00">60</text>
</g>
<!-- 6&#45;&#45;34 -->
<g id="edge18" class="edge">
<title>6&#45;&#45;34</title>
<path fill="none" stroke="black" d="M743.45,-353.93C738.78,-342.36 730.92,-327.73 719,-319.5 718.76,-319.34 590.75,-298.17 534.26,-288.84"/>
<text text-anchor="middle" x="740.98" y="-322.7" font-family="Times,serif" font-size="14.00">45</text>
</g>
<!-- 7 -->
<g id="node22" class="node">
<title>7</title>
<ellipse fill="none" stroke="black" cx="290" cy="-372" rx="27" ry="18"/>
<text text-anchor="middle" x="290" y="-366.95" font-family="Times,serif" font-size="14.00">7</text>
</g>
<!-- 7&#45;&#45;24 -->
<g id="edge20" class="edge">
<title>7&#45;&#45;24</title>
<path fill="none" stroke="black" d="M308.88,-358.57C325.26,-347.9 349.7,-332.28 371.5,-319.5 385.9,-311.06 402.45,-302.09 415.18,-295.35"/>
<text text-anchor="middle" x="378.25" y="-322.7" font-family="Times,serif" font-size="14.00">67</text>
</g>
<!-- 7&#45;&#45;43 -->
<g id="edge23" class="edge">
<title>7&#45;&#45;43</title>
<path fill="none" stroke="black" d="M292.19,-353.58C296.41,-320.04 305.61,-246.84 309.82,-213.35"/>
<text text-anchor="middle" x="309.94" y="-278.45" font-family="Times,serif" font-size="14.00">43</text>
</g>
<!-- 7&#45;&#45;44 -->
<g id="edge24" class="edge">
<title>7&#45;&#45;44</title>
<path fill="none" stroke="black" d="M262.75,-370.11C233.45,-367.85 186.86,-360.33 155.5,-336 144.2,-327.23 136.73,-312.65 132.29,-301.24"/>
<text text-anchor="middle" x="162.25" y="-322.7" font-family="Times,serif" font-size="14.00">84</text>
</g>
<!-- 7&#45;&#45;34 -->
<g id="edge22" class="edge">
<title>7&#45;&#45;34</title>
<path fill="none" stroke="black" d="M311.1,-360.41C315.94,-358.16 321.1,-355.89 326,-354 351.57,-344.12 360.49,-348.28 385,-336 396.09,-330.45 396.35,-324.92 407.5,-319.5 434.27,-306.49 444.11,-311.89 472,-301.5 476.92,-299.67 482.09,-297.42 486.94,-295.17"/>
<text text-anchor="middle" x="414.25" y="-322.7" font-family="Times,serif" font-size="14.00">51</text>
</g>
<!-- 11 -->
<g id="node23" class="node">
<title>11</title>
<ellipse fill="none" stroke="black" cx="249" cy="-283.5" rx="27" ry="18"/>
<text text-anchor="middle" x="249" y="-278.45" font-family="Times,serif" font-size="14.00">11</text>
</g>
<!-- 7&#45;&#45;11 -->
<g id="edge19" class="edge">
<title>7&#45;&#45;11</title>
<path fill="none" stroke="black" d="M283.26,-354.12C279.09,-343.98 273.5,-330.88 268,-319.5 264.99,-313.28 261.43,-306.57 258.21,-300.72"/>
<text text-anchor="middle" x="278.45" y="-322.7" font-family="Times,serif" font-size="14.00">7</text>
</g>
<!-- 25 -->
<g id="node24" class="node">
<title>25</title>
<ellipse fill="none" stroke="black" cx="240" cy="-195" rx="27" ry="18"/>
<text text-anchor="middle" x="240" y="-189.95" font-family="Times,serif" font-size="14.00">25</text>
</g>
<!-- 7&#45;&#45;25 -->
<g id="edge21" class="edge">
<title>7&#45;&#45;25</title>
<path fill="none" stroke="black" d="M267.32,-361.76C244.76,-351.11 211.78,-331.15 199.5,-301.5 186.29,-269.6 210.38,-231.7 226.74,-211.12"/>
<text text-anchor="middle" x="206.25" y="-278.45" font-family="Times,serif" font-size="14.00">18</text>
</g>
<!-- 11&#45;&#45;25 -->
<g id="edge29" class="edge">
<title>11&#45;&#45;25</title>
<path fill="none" stroke="black" d="M247.22,-265.41C245.65,-250.34 243.38,-228.49 241.81,-213.35"/>
<text text-anchor="middle" x="252.06" y="-234.2" font-family="Times,serif" font-size="14.00">88</text>
</g>
<!-- 35 -->
<g id="node36" class="node">
<title>35</title>
<ellipse fill="none" stroke="black" cx="200" cy="-106.5" rx="27" ry="18"/>
<text text-anchor="middle" x="200" y="-101.45" font-family="Times,serif" font-size="14.00">35</text>
</g>
<!-- 25&#45;&#45;35 -->
<g id="edge46" class="edge">
<title>25&#45;&#45;35</title>
<path fill="none" stroke="black" d="M232.29,-177.32C225.2,-162 214.76,-139.43 207.69,-124.13"/>
<text text-anchor="middle" x="230.33" y="-145.7" font-family="Times,serif" font-size="14.00">42</text>
</g>
<!-- 25&#45;&#45;45 -->
<g id="edge47" class="edge">
<title>25&#45;&#45;45</title>
<path fill="none" stroke="black" d="M247,-177.22C260.95,-143.77 292.09,-69.14 306.02,-35.73"/>
<text text-anchor="middle" x="290.51" y="-101.45" font-family="Times,serif" font-size="14.00">65</text>
</g>
<!-- 49 -->
<g id="node38" class="node">
<title>49</title>
<ellipse fill="none" stroke="black" cx="374" cy="-106.5" rx="27" ry="18"/>
<text text-anchor="middle" x="374" y="-101.45" font-family="Times,serif" font-size="14.00">49</text>
</g>
<!-- 25&#45;&#45;49 -->
<g id="edge48" class="edge">
<title>25&#45;&#45;49</title>
<path fill="none" stroke="black" d="M258.91,-181.79C284.45,-165.3 329.69,-136.1 355.18,-119.65"/>
<text text-anchor="middle" x="325.75" y="-145.7" font-family="Times,serif" font-size="14.00">32</text>
</g>
<!-- 20&#45;&#45;41 -->
<g id="edge39" class="edge">
<title>20&#45;&#45;41</title>
<path fill="none" stroke="black" d="M685.1,-354.32C692.54,-339 703.5,-316.43 710.93,-301.13"/>
<text text-anchor="middle" x="708.51" y="-322.7" font-family="Times,serif" font-size="14.00">19</text>
</g>
<!-- 20&#45;&#45;24 -->
<g id="edge37" class="edge">
<title>20&#45;&#45;24</title>
<path fill="none" stroke="black" d="M655.99,-360.19C651.14,-357.95 645.96,-355.74 641,-354 608.45,-342.57 598.51,-346.01 565.5,-336 545.31,-329.88 540.79,-326.8 521,-319.5 499.23,-311.47 493.4,-310.46 472,-301.5 467.15,-299.47 462.01,-297.15 457.18,-294.89"/>
<text text-anchor="middle" x="572.25" y="-322.7" font-family="Times,serif" font-size="14.00">67</text>
</g>
<!-- 31 -->
<g id="node30" class="node">
<title>31</title>
<ellipse fill="none" stroke="black" cx="647" cy="-283.5" rx="27" ry="18"/>
<text text-anchor="middle" x="647" y="-278.45" font-family="Times,serif" font-size="14.00">31</text>
</g>
<!-- 20&#45;&#45;31 -->
<g id="edge38" class="edge">
<title>20&#45;&#45;31</title>
<path fill="none" stroke="black" d="M670.35,-354.34C668.1,-348.56 665.62,-342.02 663.5,-336 659.44,-324.49 655.25,-311.39 652.11,-301.28"/>
<text text-anchor="middle" x="670.25" y="-322.7" font-family="Times,serif" font-size="14.00">93</text>
</g>
<!-- 15 -->
<g id="node27" class="node">
<title>15</title>
<ellipse fill="none" stroke="black" cx="362" cy="-372" rx="27" ry="18"/>
<text text-anchor="middle" x="362" y="-366.95" font-family="Times,serif" font-size="14.00">15</text>
</g>
<!-- 15&#45;&#45;44 -->
<g id="edge34" class="edge">
<title>15&#45;&#45;44</title>
<path fill="none" stroke="black" d="M341.45,-360.1C336.5,-357.81 331.15,-355.61 326,-354 279.34,-339.42 263.57,-352.34 217.5,-336 190.75,-326.51 162.77,-309.29 145.13,-297.39"/>
<text text-anchor="middle" x="224.25" y="-322.7" font-family="Times,serif" font-size="14.00">88</text>
</g>
<!-- 15&#45;&#45;34 -->
<g id="edge33" class="edge">
<title>15&#45;&#45;34</title>
<path fill="none" stroke="black" d="M382.57,-359.9C394.95,-353.14 410.98,-344.24 425,-336 447.22,-322.94 472.32,-307.23 489.04,-296.63"/>
<text text-anchor="middle" x="457.06" y="-322.7" font-family="Times,serif" font-size="14.00">37</text>
</g>
<!-- 32 -->
<g id="node28" class="node">
<title>32</title>
<ellipse fill="none" stroke="black" cx="384" cy="-195" rx="27" ry="18"/>
<text text-anchor="middle" x="384" y="-189.95" font-family="Times,serif" font-size="14.00">32</text>
</g>
<!-- 15&#45;&#45;32 -->
<g id="edge32" class="edge">
<title>15&#45;&#45;32</title>
<path fill="none" stroke="black" d="M355.57,-354.16C353.71,-348.48 351.93,-342.04 351,-336 349.89,-328.75 350.05,-326.77 351,-319.5 356.11,-280.55 369.93,-236.42 377.97,-212.9"/>
<text text-anchor="middle" x="365.25" y="-278.45" font-family="Times,serif" font-size="14.00">8</text>
</g>
<!-- 32&#45;&#45;49 -->
<g id="edge55" class="edge">
<title>32&#45;&#45;49</title>
<path fill="none" stroke="black" d="M382.02,-176.91C380.28,-161.84 377.76,-139.99 376.01,-124.85"/>
<text text-anchor="middle" x="386.65" y="-145.7" font-family="Times,serif" font-size="14.00">34</text>
</g>
<!-- 18 -->
<g id="node29" class="node">
<title>18</title>
<ellipse fill="none" stroke="black" cx="605" cy="-372" rx="27" ry="18"/>
<text text-anchor="middle" x="605" y="-366.95" font-family="Times,serif" font-size="14.00">18</text>
</g>
<!-- 18&#45;&#45;34 -->
<g id="edge35" class="edge">
<title>18&#45;&#45;34</title>
<path fill="none" stroke="black" d="M601.09,-353.92C597.83,-342.94 592.19,-329 583,-319.5 569.41,-305.46 549.09,-296.46 533.03,-291.1"/>
<text text-anchor="middle" x="600.83" y="-322.7" font-family="Times,serif" font-size="14.00">94</text>
</g>
<!-- 31&#45;&#45;48 -->
<g id="edge54" class="edge">
<title>31&#45;&#45;48</title>
<path fill="none" stroke="black" d="M668.01,-271.68C672.86,-269.44 678.04,-267.24 683,-265.5 778.39,-232.03 896.9,-209.38 948.7,-200.37"/>
<text text-anchor="middle" x="808.34" y="-234.2" font-family="Times,serif" font-size="14.00">72</text>
</g>
<!-- 31&#45;&#45;32 -->
<g id="edge52" class="edge">
<title>31&#45;&#45;32</title>
<path fill="none" stroke="black" d="M626.01,-272.1C601.76,-260.48 560.38,-241.88 523,-231 478.38,-218.01 464.3,-227.05 420,-213 414.86,-211.37 409.51,-209.16 404.56,-206.86"/>
<text text-anchor="middle" x="571.64" y="-234.2" font-family="Times,serif" font-size="14.00">3</text>
</g>
<!-- 46 -->
<g id="node40" class="node">
<title>46</title>
<ellipse fill="none" stroke="black" cx="647" cy="-195" rx="27" ry="18"/>
<text text-anchor="middle" x="647" y="-189.95" font-family="Times,serif" font-size="14.00">46</text>
</g>
<!-- 31&#45;&#45;46 -->
<g id="edge53" class="edge">
<title>31&#45;&#45;46</title>
<path fill="none" stroke="black" d="M647,-265.41C647,-250.34 647,-228.49 647,-213.35"/>
<text text-anchor="middle" x="653.75" y="-234.2" font-family="Times,serif" font-size="14.00">80</text>
</g>
<!-- 22 -->
<g id="node31" class="node">
<title>22</title>
<ellipse fill="none" stroke="black" cx="575" cy="-195" rx="27" ry="18"/>
<text text-anchor="middle" x="575" y="-189.95" font-family="Times,serif" font-size="14.00">22</text>
</g>
<!-- 22&#45;&#45;38 -->
<g id="edge41" class="edge">
<title>22&#45;&#45;38</title>
<path fill="none" stroke="black" d="M575,-176.91C575,-161.84 575,-139.99 575,-124.85"/>
<text text-anchor="middle" x="581.75" y="-145.7" font-family="Times,serif" font-size="14.00">68</text>
</g>
<!-- 37 -->
<g id="node32" class="node">
<title>37</title>
<ellipse fill="none" stroke="black" cx="1073" cy="-106.5" rx="27" ry="18"/>
<text text-anchor="middle" x="1073" y="-101.45" font-family="Times,serif" font-size="14.00">37</text>
</g>
<!-- 22&#45;&#45;37 -->
<g id="edge40" class="edge">
<title>22&#45;&#45;37</title>
<path fill="none" stroke="black" d="M595.53,-183.05C600.49,-180.76 605.84,-178.57 611,-177 771.25,-128.26 973.58,-112.93 1045.83,-108.82"/>
<text text-anchor="middle" x="754.76" y="-145.7" font-family="Times,serif" font-size="14.00">60</text>
</g>
<!-- 23 -->
<g id="node33" class="node">
<title>23</title>
<ellipse fill="none" stroke="black" cx="66" cy="-372" rx="27" ry="18"/>
<text text-anchor="middle" x="66" y="-366.95" font-family="Times,serif" font-size="14.00">23</text>
</g>
<!-- 23&#45;&#45;24 -->
<g id="edge42" class="edge">
<title>23&#45;&#45;24</title>
<path fill="none" stroke="black" d="M93.03,-369.33C126.84,-366.34 185.77,-358.16 231,-336 241.19,-331 240.15,-324.17 250.5,-319.5 300.65,-296.86 319.12,-312.69 373,-301.5 385.87,-298.83 400.01,-295.09 411.63,-291.79"/>
<text text-anchor="middle" x="257.25" y="-322.7" font-family="Times,serif" font-size="14.00">17</text>
</g>
<!-- 23&#45;&#45;44 -->
<g id="edge43" class="edge">
<title>23&#45;&#45;44</title>
<path fill="none" stroke="black" d="M73.35,-354.55C78.37,-344.09 85.53,-330.5 93.5,-319.5 98.83,-312.14 105.62,-304.77 111.7,-298.69"/>
<text text-anchor="middle" x="100.25" y="-322.7" font-family="Times,serif" font-size="14.00">22</text>
</g>
<!-- 50 -->
<g id="node34" class="node">
<title>50</title>
<ellipse fill="none" stroke="black" cx="55" cy="-283.5" rx="27" ry="18"/>
<text text-anchor="middle" x="55" y="-278.45" font-family="Times,serif" font-size="14.00">50</text>
</g>
<!-- 23&#45;&#45;50 -->
<g id="edge44" class="edge">
<title>23&#45;&#45;50</title>
<path fill="none" stroke="black" d="M60.54,-354.08C58.94,-348.4 57.39,-341.98 56.5,-336 54.82,-324.67 54.45,-311.8 54.49,-301.76"/>
<text text-anchor="middle" x="63.25" y="-322.7" font-family="Times,serif" font-size="14.00">55</text>
</g>
<!-- 27&#45;&#45;38 -->
<g id="edge50" class="edge">
<title>27&#45;&#45;38</title>
<path fill="none" stroke="black" d="M473.82,-181.05C496.38,-164.65 535.02,-136.56 557.45,-120.26"/>
<text text-anchor="middle" x="532.91" y="-145.7" font-family="Times,serif" font-size="14.00">13</text>
</g>
<!-- 28 -->
<g id="node39" class="node">
<title>28</title>
<ellipse fill="none" stroke="black" cx="451" cy="-106.5" rx="27" ry="18"/>
<text text-anchor="middle" x="451" y="-101.45" font-family="Times,serif" font-size="14.00">28</text>
</g>
<!-- 27&#45;&#45;28 -->
<g id="edge49" class="edge">
<title>27&#45;&#45;28</title>
<path fill="none" stroke="black" d="M455.01,-176.91C454.14,-161.84 452.88,-139.99 452,-124.85"/>
<text text-anchor="middle" x="460.7" y="-145.7" font-family="Times,serif" font-size="14.00">28</text>
</g>
<!-- 28&#45;&#45;45 -->
<g id="edge51" class="edge">
<title>28&#45;&#45;45</title>
<path fill="none" stroke="black" d="M431.81,-93.47C405.45,-76.95 358.3,-47.4 332.03,-30.93"/>
<text text-anchor="middle" x="401.11" y="-57.2" font-family="Times,serif" font-size="14.00">23</text>
</g>
</g>
</svg>
