<?xml version="1.0" encoding="UTF-8" standalone="no"?>
<!DOCTYPE svg PUBLIC "-//W3C//DTD SVG 1.1//EN"
 "http://www.w3.org/Graphics/SVG/1.1/DTD/svg11.dtd">
<!-- Generated by graphviz version 12.2.0 (20241103.1931)
 -->
<!-- Title: G Pages: 1 -->
<svg width="328pt" height="310pt"
 viewBox="0.00 0.00 328.00 309.50" xmlns="http://www.w3.org/2000/svg" xmlns:xlink="http://www.w3.org/1999/xlink">
<g id="graph0" class="graph" transform="scale(1 1) rotate(0) translate(4 305.5)">
<title>G</title>
<polygon fill="white" stroke="none" points="-4,4 -4,-305.5 324,-305.5 324,4 -4,4"/>
<!-- 1 -->
<g id="node1" class="node">
<title>1</title>
<ellipse fill="none" stroke="black" cx="33" cy="-106.5" rx="27" ry="18"/>
<text text-anchor="middle" x="33" y="-101.45" font-family="Times,serif" font-size="14.00">1</text>
</g>
<!-- 2 -->
<g id="node2" class="node">
<title>2</title>
<ellipse fill="none" stroke="black" cx="27" cy="-18" rx="27" ry="18"/>
<text text-anchor="middle" x="27" y="-12.95" font-family="Times,serif" font-size="14.00">2</text>
</g>
<!-- 1&#45;&#45;2 -->
<g id="edge1" class="edge">
<title>1&#45;&#45;2</title>
<path fill="none" stroke="black" d="M31.81,-88.41C30.77,-73.34 29.25,-51.49 28.2,-36.35"/>
<text text-anchor="middle" x="33.91" y="-57.2" font-family="Times,serif" font-size="14.00">7</text>
</g>
<!-- 10 -->
<g id="node3" class="node">
<title>10</title>
<ellipse fill="none" stroke="black" cx="99" cy="-18" rx="27" ry="18"/>
<text text-anchor="middle" x="99" y="-12.95" font-family="Times,serif" font-size="14.00">10</text>
</g>
<!-- 1&#45;&#45;10 -->
<g id="edge2" class="edge">
<title>1&#45;&#45;10</title>
<path fill="none" stroke="black" d="M44.8,-90.04C56.74,-74.39 75.1,-50.33 87.08,-34.62"/>
<text text-anchor="middle" x="75.29" y="-57.2" font-family="Times,serif" font-size="14.00">6</text>
</g>
<!-- 3 -->
<g id="node4" class="node">
<title>3</title>
<ellipse fill="none" stroke="black" cx="135" cy="-283.5" rx="27" ry="18"/>
<text text-anchor="middle" x="135" y="-278.45" font-family="Times,serif" font-size="14.00">3</text>
</g>
<!-- 5 -->
<g id="node5" class="node">
<title>5</title>
<ellipse fill="none" stroke="black" cx="171" cy="-195" rx="27" ry="18"/>
<text text-anchor="middle" x="171" y="-189.95" font-family="Times,serif" font-size="14.00">5</text>
</g>
<!-- 3&#45;&#45;5 -->
<g id="edge3" class="edge">
<title>3&#45;&#45;5</title>
<path fill="none" stroke="black" d="M141.94,-265.82C148.32,-250.5 157.71,-227.93 164.08,-212.63"/>
<text text-anchor="middle" x="159.6" y="-234.2" font-family="Times,serif" font-size="14.00">6</text>
</g>
<!-- 6 -->
<g id="node6" class="node">
<title>6</title>
<ellipse fill="none" stroke="black" cx="99" cy="-195" rx="27" ry="18"/>
<text text-anchor="middle" x="99" y="-189.95" font-family="Times,serif" font-size="14.00">6</text>
</g>
<!-- 3&#45;&#45;6 -->
<g id="edge4" class="edge">
<title>3&#45;&#45;6</title>
<path fill="none" stroke="black" d="M128.06,-265.82C121.68,-250.5 112.29,-227.93 105.92,-212.63"/>
<text text-anchor="middle" x="123.6" y="-234.2" font-family="Times,serif" font-size="14.00">6</text>
</g>
<!-- 9 -->
<g id="node8" class="node">
<title>9</title>
<ellipse fill="none" stroke="black" cx="171" cy="-18" rx="27" ry="18"/>
<text text-anchor="middle" x="171" y="-12.95" font-family="Times,serif" font-size="14.00">9</text>
</g>
<!-- 5&#45;&#45;9 -->
<g id="edge8" class="edge">
<title>5&#45;&#45;9</title>
<path fill="none" stroke="black" d="M171,-176.58C171,-143.04 171,-69.84 171,-36.35"/>
<text text-anchor="middle" x="174.38" y="-101.45" font-family="Times,serif" font-size="14.00">6</text>
</g>
<!-- 7 -->
<g id="node9" class="node">
<title>7</title>
<ellipse fill="none" stroke="black" cx="293" cy="-106.5" rx="27" ry="18"/>
<text text-anchor="middle" x="293" y="-101.45" font-family="Times,serif" font-size="14.00">7</text>
</g>
<!-- 5&#45;&#45;7 -->
<g id="edge6" class="edge">
<title>5&#45;&#45;7</title>
<path fill="none" stroke="black" d="M189,-181.24C212.07,-164.88 251.82,-136.7 274.92,-120.32"/>
<text text-anchor="middle" x="246.3" y="-145.7" font-family="Times,serif" font-size="14.00">1</text>
</g>
<!-- 8 -->
<g id="node10" class="node">
<title>8</title>
<ellipse fill="none" stroke="black" cx="105" cy="-106.5" rx="27" ry="18"/>
<text text-anchor="middle" x="105" y="-101.45" font-family="Times,serif" font-size="14.00">8</text>
</g>
<!-- 5&#45;&#45;8 -->
<g id="edge7" class="edge">
<title>5&#45;&#45;8</title>
<path fill="none" stroke="black" d="M157.79,-178.9C152.6,-172.81 146.65,-165.66 141.5,-159 132.38,-147.21 122.65,-133.41 115.53,-123.07"/>
<text text-anchor="middle" x="148.25" y="-145.7" font-family="Times,serif" font-size="14.00">20</text>
</g>
<!-- 6&#45;&#45;8 -->
<g id="edge9" class="edge">
<title>6&#45;&#45;8</title>
<path fill="none" stroke="black" d="M100.19,-176.91C101.23,-161.84 102.75,-139.99 103.8,-124.85"/>
<text text-anchor="middle" x="105.91" y="-145.7" font-family="Times,serif" font-size="14.00">7</text>
</g>
<!-- 4 -->
<g id="node7" class="node">
<title>4</title>
<ellipse fill="none" stroke="black" cx="221" cy="-106.5" rx="27" ry="18"/>
<text text-anchor="middle" x="221" y="-101.45" font-family="Times,serif" font-size="14.00">4</text>
</g>
<!-- 4&#45;&#45;9 -->
<g id="edge5" class="edge">
<title>4&#45;&#45;9</title>
<path fill="none" stroke="black" d="M211.6,-89.23C202.66,-73.77 189.29,-50.64 180.36,-35.2"/>
<text text-anchor="middle" x="207.23" y="-57.2" font-family="Times,serif" font-size="14.00">18</text>
</g>
<!-- 8&#45;&#45;10 -->
<g id="edge11" class="edge">
<title>8&#45;&#45;10</title>
<path fill="none" stroke="black" d="M103.81,-88.41C102.77,-73.34 101.25,-51.49 100.2,-36.35"/>
<text text-anchor="middle" x="109.29" y="-57.2" font-family="Times,serif" font-size="14.00">19</text>
</g>
<!-- 8&#45;&#45;9 -->
<g id="edge10" class="edge">
<title>8&#45;&#45;9</title>
<path fill="none" stroke="black" d="M116.8,-90.04C128.74,-74.39 147.1,-50.33 159.08,-34.62"/>
<text text-anchor="middle" x="147.29" y="-57.2" font-family="Times,serif" font-size="14.00">2</text>
</g>
</g>
</svg>
